{
  "asset": { "version": "2.0", "generator": "Make3DAdvanced" },
  "scene": 0,
  "scenes": [{ "nodes": [0] }],
  "nodes": [{ "mesh": 0, "name": "Make3DAdvancedModel" }],
  "meshes": [{ "primitives": [{ "attributes": { "POSITION": 0, "NORMAL": 1, "TEXCOORD_0": 2 }, "indices": 3, "material": 0, "mode": 4 }] }],
  "materials": [{
    "name": "Make3DGeneratedMaterial",
    "doubleSided": true,
    "pbrMetallicRoughness": {
      "baseColorFactor": [0.820000, 0.820000, 0.820000, 1.000000],
      "metallicFactor": 0.000000,
      "roughnessFactor": 0.860000
    }
  }],
  "buffers": [{ "uri": "make3d_advanced_material.bin", "byteLength": 86864 }],
  "bufferViews": [
    { "buffer": 0, "byteOffset": 0, "byteLength": 20136, "target": 34962 },
    { "buffer": 0, "byteOffset": 20136, "byteLength": 20136, "target": 34962 },
    { "buffer": 0, "byteOffset": 40272, "byteLength": 13424, "target": 34962 },
    { "buffer": 0, "byteOffset": 53696, "byteLength": 33168, "target": 34963 }
  ],
  "accessors": [
    { "bufferView": 0, "componentType": 5126, "count": 1678, "type": "VEC3", "min": [-0.488470, 0.000000, -0.231525], "max": [0.488470, 2.000000, 0.231525] },
    { "bufferView": 1, "componentType": 5126, "count": 1678, "type": "VEC3" },
    { "bufferView": 2, "componentType": 5126, "count": 1678, "type": "VEC2" },
    { "bufferView": 3, "componentType": 5125, "count": 8292, "type": "SCALAR" }
  ]
}
